<?xml version="1.0" standalone="no"?>
<svg viewBox="0 0 200 200" xmlns="http://www.w3.org/2000/svg">
  <path fill="#0F62FE" d="M30.6,-53.8C43.2,-45.7,59.6,-44.8,70.7,-37C81.7,-29.2,87.5,-14.6,86.9,-0.3C86.3,14,79.4,27.9,69.7,38C60,48,47.4,54.2,35.3,63.5C23.2,72.7,11.6,85,0.8,83.7C-10,82.3,-20.1,67.2,-32.1,57.9C-44.1,48.6,-58,45.1,-63.4,36.4C-68.7,27.7,-65.5,13.9,-63.4,1.2C-61.4,-11.5,-60.5,-23,-58.1,-36.8C-55.7,-50.6,-51.8,-66.7,-41.8,-76.3C-31.9,-86,-15.9,-89.1,-3.5,-83.1C9,-77.1,17.9,-61.8,30.6,-53.8Z" transform="translate(100 100)" />
</svg>
